<svg xmlns="http://www.w3.org/2000/svg" xmlns:xlink="http://www.w3.org/1999/xlink" width="500" zoomAndPan="magnify" viewBox="0 0 375 374.999991" height="500" preserveAspectRatio="xMidYMid meet" version="1.0"><defs><g/><clipPath id="5094a801ea"><path d="M 30.3125 0 L 337.496094 0 L 337.496094 307.183594 L 30.3125 307.183594 Z M 30.3125 0 " clip-rule="nonzero"/></clipPath><clipPath id="142ac5bd37"><path d="M 183.902344 0 C 99.078125 0 30.3125 68.765625 30.3125 153.589844 C 30.3125 238.417969 99.078125 307.183594 183.902344 307.183594 C 268.730469 307.183594 337.496094 238.417969 337.496094 153.589844 C 337.496094 68.765625 268.730469 0 183.902344 0 Z M 183.902344 0 " clip-rule="nonzero"/></clipPath></defs><rect x="-37.5" width="450" fill="#ffffff" y="-37.499999" height="449.999989" fill-opacity="1"/><rect x="-37.5" width="450" fill="#fff8eb" y="-37.499999" height="449.999989" fill-opacity="1"/><g clip-path="url(#5094a801ea)"><g clip-path="url(#142ac5bd37)"><path stroke-linecap="butt" transform="matrix(0.75, 0, 0, 0.75, 30.311578, 0.000000000000021316)" fill="none" stroke-linejoin="miter" d="M 204.787701 -0.000000000000028422 C 91.688735 -0.000000000000028422 0.00122876 91.687506 0.00122876 204.786472 C 0.00122876 317.890646 91.688735 409.578152 204.787701 409.578152 C 317.891875 409.578152 409.579381 317.890646 409.579381 204.786472 C 409.579381 91.687506 317.891875 -0.000000000000028422 204.787701 -0.000000000000028422 Z M 204.787701 -0.000000000000028422 " stroke="#ffb83d" stroke-width="20" stroke-opacity="1" stroke-miterlimit="4"/></g></g><g fill="#ffb83d" fill-opacity="1"><g transform="translate(67.165822, 242.830457)"><g><path d="M 107.53125 -120.671875 C 105.8125 -119.421875 104.085938 -118.796875 102.359375 -118.796875 C 99.703125 -118.796875 97.4375 -119.972656 95.5625 -122.328125 C 94.457031 -123.890625 93.90625 -125.6875 93.90625 -127.71875 C 93.90625 -130.382812 94.847656 -132.65625 96.734375 -134.53125 C 105.648438 -142.820312 112.457031 -151.234375 117.15625 -159.765625 C 121.851562 -168.296875 125.21875 -176.316406 127.25 -183.828125 C 127.875 -185.867188 128.96875 -187.515625 130.53125 -188.765625 C 132.101562 -190.015625 133.90625 -190.640625 135.9375 -190.640625 C 138.59375 -190.640625 140.78125 -189.78125 142.5 -188.0625 C 144.226562 -186.34375 145.09375 -184.304688 145.09375 -181.953125 C 145.09375 -181.640625 145.09375 -181.25 145.09375 -180.78125 C 145.09375 -180.3125 145.015625 -179.921875 144.859375 -179.609375 C 144.234375 -177.421875 143.488281 -175.148438 142.625 -172.796875 C 141.769531 -170.453125 140.789062 -168.023438 139.6875 -165.515625 C 139.21875 -164.421875 139.613281 -163.875 140.875 -163.875 L 208.015625 -163.875 C 210.359375 -163.875 212.390625 -163.015625 214.109375 -161.296875 C 215.835938 -159.578125 216.703125 -157.539062 216.703125 -155.1875 C 216.703125 -152.84375 215.835938 -150.804688 214.109375 -149.078125 C 212.390625 -147.359375 210.359375 -146.5 208.015625 -146.5 L 130.53125 -146.5 C 129.75 -146.5 129.125 -146.1875 128.65625 -145.5625 C 125.6875 -140.863281 122.441406 -136.398438 118.921875 -132.171875 C 115.398438 -127.953125 111.601562 -124.117188 107.53125 -120.671875 Z M 57.75 -111.75 C 57.75 -110.8125 58.222656 -110.34375 59.171875 -110.34375 L 78.65625 -110.34375 C 82.40625 -110.34375 85.648438 -109.007812 88.390625 -106.34375 C 91.128906 -103.6875 92.5 -100.484375 92.5 -96.734375 C 92.5 -90.472656 92.421875 -83.503906 92.265625 -75.828125 C 92.109375 -68.160156 91.875 -60.492188 91.5625 -52.828125 C 91.25 -45.160156 90.894531 -38.273438 90.5 -32.171875 C 90.113281 -26.066406 89.765625 -21.523438 89.453125 -18.546875 C 87.890625 -7.117188 84.679688 0.78125 79.828125 5.15625 C 74.972656 9.539062 67.929688 11.734375 58.703125 11.734375 C 57.753906 11.734375 56.769531 11.734375 55.75 11.734375 C 54.738281 11.734375 53.609375 11.65625 52.359375 11.5 C 50.160156 11.34375 48.28125 10.363281 46.71875 8.5625 C 45.15625 6.769531 44.375 4.773438 44.375 2.578125 C 44.375 0.078125 45.3125 -1.992188 47.1875 -3.640625 C 49.070312 -5.285156 51.265625 -6.03125 53.765625 -5.875 C 54.859375 -5.71875 55.910156 -5.640625 56.921875 -5.640625 C 57.941406 -5.640625 58.847656 -5.640625 59.640625 -5.640625 C 64.640625 -5.640625 67.765625 -6.691406 69.015625 -8.796875 C 70.273438 -10.910156 71.375 -14.941406 72.3125 -20.890625 C 72.625 -23.242188 72.9375 -26.960938 73.25 -32.046875 C 73.5625 -37.128906 73.832031 -43.035156 74.0625 -49.765625 C 74.300781 -56.503906 74.5 -63.550781 74.65625 -70.90625 C 74.8125 -78.257812 74.96875 -85.378906 75.125 -92.265625 C 75.125 -93.203125 74.65625 -93.671875 73.71875 -93.671875 L 58.9375 -93.671875 C 57.988281 -93.671875 57.515625 -93.203125 57.515625 -92.265625 C 56.890625 -79.585938 55.484375 -67.023438 53.296875 -54.578125 C 51.109375 -42.140625 48.488281 -30.519531 45.4375 -19.71875 C 42.382812 -8.914062 39.289062 0.472656 36.15625 8.453125 C 34.28125 12.835938 31.070312 15.03125 26.53125 15.03125 C 24.1875 15.03125 22.269531 14.320312 20.78125 12.90625 C 19.289062 11.5 18.546875 9.859375 18.546875 7.984375 C 18.546875 7.515625 18.582031 7.082031 18.65625 6.6875 C 18.738281 6.300781 18.859375 5.875 19.015625 5.40625 C 24.023438 -7.4375 28.015625 -19.722656 30.984375 -31.453125 C 33.960938 -43.191406 36.15625 -53.992188 37.5625 -63.859375 C 38.96875 -73.722656 39.867188 -82.210938 40.265625 -89.328125 C 40.660156 -96.453125 40.859375 -101.660156 40.859375 -104.953125 L 40.859375 -140.40625 C 40.859375 -141.34375 40.382812 -141.8125 39.4375 -141.8125 L 27.46875 -141.8125 C 25.125 -141.8125 23.085938 -142.628906 21.359375 -144.265625 C 19.640625 -145.910156 18.78125 -147.988281 18.78125 -150.5 C 18.78125 -152.84375 19.640625 -154.875 21.359375 -156.59375 C 23.085938 -158.320312 25.125 -159.1875 27.46875 -159.1875 L 48.359375 -159.1875 C 49.304688 -159.1875 49.78125 -159.65625 49.78125 -160.59375 L 49.78125 -181.25 C 49.78125 -183.75 50.640625 -185.859375 52.359375 -187.578125 C 54.078125 -189.304688 56.109375 -190.171875 58.453125 -190.171875 C 60.960938 -190.171875 63.078125 -189.304688 64.796875 -187.578125 C 66.515625 -185.859375 67.375 -183.75 67.375 -181.25 L 67.375 -160.59375 C 67.375 -159.65625 67.847656 -159.1875 68.796875 -159.1875 L 89.21875 -159.1875 C 91.71875 -159.1875 93.789062 -158.320312 95.4375 -156.59375 C 97.082031 -154.875 97.90625 -152.84375 97.90625 -150.5 C 97.90625 -147.988281 97.082031 -145.910156 95.4375 -144.265625 C 93.789062 -142.628906 91.71875 -141.8125 89.21875 -141.8125 L 59.171875 -141.8125 C 58.222656 -141.8125 57.75 -141.34375 57.75 -140.40625 Z M 215.296875 -17.375 C 218.265625 -14.875 219.75 -11.742188 219.75 -7.984375 C 219.75 -5.316406 218.96875 -3.203125 217.40625 -1.640625 C 215.84375 -0.078125 214.125 0.703125 212.25 0.703125 C 210.832031 0.703125 209.5 0.234375 208.25 -0.703125 C 200.113281 -6.960938 192.441406 -14.863281 185.234375 -24.40625 C 178.035156 -33.957031 171.695312 -44.601562 166.21875 -56.34375 C 160.738281 -68.082031 156.515625 -80.210938 153.546875 -92.734375 C 153.546875 -93.984375 153 -94.296875 151.90625 -93.671875 C 151.125 -93.359375 150.300781 -92.96875 149.4375 -92.5 C 148.570312 -92.03125 147.671875 -91.5625 146.734375 -91.09375 C 146.109375 -90.9375 145.796875 -90.390625 145.796875 -89.453125 L 145.796875 4.703125 C 145.796875 7.046875 144.9375 9.078125 143.21875 10.796875 C 141.5 12.515625 139.382812 13.375 136.875 13.375 C 134.375 13.375 132.257812 12.515625 130.53125 10.796875 C 128.8125 9.078125 127.953125 7.046875 127.953125 4.703125 L 127.953125 -80.53125 C 127.953125 -81.9375 127.40625 -82.328125 126.3125 -81.703125 C 122.863281 -80.140625 119.414062 -78.769531 115.96875 -77.59375 C 112.53125 -76.414062 109.171875 -75.359375 105.890625 -74.421875 C 105.421875 -74.265625 104.710938 -74.1875 103.765625 -74.1875 C 101.734375 -74.1875 99.816406 -74.96875 98.015625 -76.53125 C 96.222656 -78.101562 95.328125 -80.140625 95.328125 -82.640625 C 95.328125 -84.671875 95.953125 -86.507812 97.203125 -88.15625 C 98.453125 -89.800781 100.09375 -90.9375 102.125 -91.5625 C 112.769531 -94.851562 123.296875 -98.960938 133.703125 -103.890625 C 144.117188 -108.816406 153.785156 -114.097656 162.703125 -119.734375 C 171.628906 -125.367188 179.222656 -130.613281 185.484375 -135.46875 C 186.734375 -136.5625 188.375 -137.109375 190.40625 -137.109375 C 193.226562 -137.109375 195.421875 -135.9375 196.984375 -133.59375 C 198.078125 -132.03125 198.625 -130.226562 198.625 -128.1875 C 198.625 -125.0625 197.453125 -122.554688 195.109375 -120.671875 C 191.660156 -118.015625 187.785156 -115.273438 183.484375 -112.453125 C 179.179688 -109.640625 174.601562 -106.828125 169.75 -104.015625 C 168.96875 -103.535156 168.734375 -102.90625 169.046875 -102.125 C 169.828125 -98.0625 170.800781 -93.992188 171.96875 -89.921875 C 173.144531 -85.847656 174.359375 -81.859375 175.609375 -77.953125 C 175.765625 -77.003906 176.394531 -76.691406 177.5 -77.015625 C 182.664062 -79.203125 187.789062 -81.664062 192.875 -84.40625 C 197.957031 -87.144531 203.394531 -90.628906 209.1875 -94.859375 C 211.226562 -96.421875 213.265625 -97.203125 215.296875 -97.203125 C 217.640625 -97.203125 219.515625 -95.945312 220.921875 -93.4375 C 221.710938 -91.875 222.109375 -90.46875 222.109375 -89.21875 C 222.109375 -85.925781 220.226562 -82.875 216.46875 -80.0625 C 211.457031 -76.300781 206.054688 -72.851562 200.265625 -69.71875 C 194.472656 -66.59375 188.914062 -63.9375 183.59375 -61.75 C 182.65625 -61.4375 182.421875 -60.8125 182.890625 -59.875 C 186.960938 -51.726562 191.695312 -44.054688 197.09375 -36.859375 C 202.5 -29.660156 208.566406 -23.164062 215.296875 -17.375 Z M 215.296875 -17.375 "/></g></g></g><g fill="#ffb83d" fill-opacity="1"><g transform="translate(90.683823, 365.089085)"><g><path d="M 24.984375 -2.828125 C 24.347656 -2.785156 23.785156 -3 23.296875 -3.46875 C 22.804688 -3.945312 22.5625 -4.523438 22.5625 -5.203125 C 22.5625 -5.921875 22.8125 -6.523438 23.3125 -7.015625 C 23.820312 -7.503906 24.4375 -7.765625 25.15625 -7.796875 C 28.65625 -7.878906 31.664062 -8.351562 34.1875 -9.21875 C 36.71875 -10.082031 38.789062 -11.210938 40.40625 -12.609375 C 42.03125 -14.003906 43.226562 -15.519531 44 -17.15625 C 44.78125 -18.789062 45.171875 -20.382812 45.171875 -21.9375 C 45.171875 -24.039062 44.53125 -25.875 43.25 -27.4375 C 41.96875 -29.007812 40.117188 -29.851562 37.703125 -29.96875 C 35.484375 -30.070312 33.289062 -29.859375 31.125 -29.328125 C 28.957031 -28.804688 26.804688 -28.164062 24.671875 -27.40625 C 22.546875 -26.65625 20.390625 -25.988281 18.203125 -25.40625 C 16.015625 -24.820312 13.789062 -24.53125 11.53125 -24.53125 C 10.96875 -24.53125 10.398438 -24.546875 9.828125 -24.578125 C 9.265625 -24.617188 8.679688 -24.695312 8.078125 -24.8125 C 7.515625 -24.894531 7.0625 -25.160156 6.71875 -25.609375 C 6.382812 -26.054688 6.21875 -26.546875 6.21875 -27.078125 C 6.21875 -27.867188 6.507812 -28.507812 7.09375 -29 C 7.675781 -29.488281 8.363281 -29.695312 9.15625 -29.625 C 9.53125 -29.582031 9.882812 -29.550781 10.21875 -29.53125 C 10.5625 -29.519531 10.925781 -29.515625 11.3125 -29.515625 C 13.488281 -29.515625 15.601562 -29.796875 17.65625 -30.359375 C 19.71875 -30.921875 21.765625 -31.5625 23.796875 -32.28125 C 25.835938 -33 27.882812 -33.640625 29.9375 -34.203125 C 31.988281 -34.765625 34.085938 -35.046875 36.234375 -35.046875 C 37.328125 -35.046875 38.4375 -34.941406 39.5625 -34.734375 C 40.695312 -34.523438 41.847656 -34.195312 43.015625 -33.75 C 45.359375 -32.695312 47.148438 -31.113281 48.390625 -29 C 49.628906 -26.882812 50.25 -24.546875 50.25 -21.984375 C 50.25 -19.804688 49.757812 -17.601562 48.78125 -15.375 C 47.800781 -13.15625 46.285156 -11.109375 44.234375 -9.234375 C 42.179688 -7.367188 39.5625 -5.851562 36.375 -4.6875 C 33.1875 -3.519531 29.390625 -2.898438 24.984375 -2.828125 Z M 24.984375 -2.828125 "/></g></g></g><g fill="#ffb83d" fill-opacity="1"><g transform="translate(155.629226, 365.089085)"><g><path d="M 31.71875 -33.359375 C 29.226562 -32.109375 26.378906 -31.109375 23.171875 -30.359375 C 22.867188 -30.242188 22.703125 -30.070312 22.671875 -29.84375 C 21.390625 -25.96875 19.832031 -21.925781 18 -17.71875 C 16.175781 -13.519531 13.984375 -9.460938 11.421875 -5.546875 C 10.960938 -4.785156 10.265625 -4.40625 9.328125 -4.40625 C 8.796875 -4.40625 8.328125 -4.539062 7.921875 -4.8125 C 7.203125 -5.300781 6.84375 -5.992188 6.84375 -6.890625 C 6.84375 -7.460938 6.972656 -7.9375 7.234375 -8.3125 C 9.460938 -11.78125 11.382812 -15.226562 13 -18.65625 C 14.625 -22.082031 16.019531 -25.4375 17.1875 -28.71875 C 17.1875 -28.757812 17.191406 -28.796875 17.203125 -28.828125 C 17.222656 -28.867188 17.234375 -28.90625 17.234375 -28.9375 C 17.234375 -29.238281 17.066406 -29.351562 16.734375 -29.28125 C 15.984375 -29.25 15.21875 -29.203125 14.4375 -29.140625 C 13.664062 -29.085938 12.90625 -29.0625 12.15625 -29.0625 C 11.894531 -29.0625 11.617188 -29.0625 11.328125 -29.0625 C 11.046875 -29.0625 10.753906 -29.078125 10.453125 -29.109375 C 9.816406 -29.191406 9.289062 -29.46875 8.875 -29.9375 C 8.457031 -30.40625 8.25 -30.941406 8.25 -31.546875 C 8.25 -32.222656 8.503906 -32.804688 9.015625 -33.296875 C 9.523438 -33.785156 10.117188 -34.03125 10.796875 -34.03125 C 12.035156 -34.03125 13.316406 -34.066406 14.640625 -34.140625 C 15.960938 -34.222656 17.320312 -34.359375 18.71875 -34.546875 C 19.019531 -34.617188 19.1875 -34.769531 19.21875 -35 C 19.632812 -36.3125 20.019531 -37.585938 20.375 -38.828125 C 20.738281 -40.078125 21.070312 -41.304688 21.375 -42.515625 C 21.675781 -43.753906 22.445312 -44.375 23.6875 -44.375 C 24.4375 -44.375 25.035156 -44.117188 25.484375 -43.609375 C 25.941406 -43.097656 26.171875 -42.523438 26.171875 -41.890625 C 26.171875 -41.628906 26.15625 -41.421875 26.125 -41.265625 C 25.925781 -40.546875 25.703125 -39.78125 25.453125 -38.96875 C 25.210938 -38.164062 24.984375 -37.347656 24.765625 -36.515625 C 24.765625 -36.484375 24.753906 -36.457031 24.734375 -36.4375 C 24.710938 -36.414062 24.703125 -36.382812 24.703125 -36.34375 C 24.703125 -36.007812 24.890625 -35.898438 25.265625 -36.015625 C 26.734375 -36.503906 28.1875 -37.101562 29.625 -37.8125 C 30.070312 -38.007812 30.445312 -38.109375 30.75 -38.109375 C 31.726562 -38.109375 32.425781 -37.671875 32.84375 -36.796875 C 33 -36.492188 33.078125 -36.117188 33.078125 -35.671875 C 33.078125 -34.617188 32.625 -33.847656 31.71875 -33.359375 Z M 48.28125 -6.5 C 48.914062 -6.050781 49.234375 -5.410156 49.234375 -4.578125 C 49.234375 -4.046875 49.066406 -3.554688 48.734375 -3.109375 C 48.273438 -2.460938 47.613281 -2.140625 46.75 -2.140625 C 46.21875 -2.140625 45.75 -2.289062 45.34375 -2.59375 C 44.582031 -3.164062 43.679688 -3.800781 42.640625 -4.5 C 41.609375 -5.195312 40.492188 -5.84375 39.296875 -6.4375 C 39.210938 -6.476562 39.113281 -6.5 39 -6.5 C 38.78125 -6.5 38.671875 -6.347656 38.671875 -6.046875 C 38.628906 -5.109375 38.375 -4.0625 37.90625 -2.90625 C 37.4375 -1.757812 36.625 -0.773438 35.46875 0.046875 C 34.320312 0.878906 32.691406 1.296875 30.578125 1.296875 C 28.585938 1.296875 26.851562 0.910156 25.375 0.140625 C 23.90625 -0.628906 22.773438 -1.617188 21.984375 -2.828125 C 21.191406 -4.035156 20.796875 -5.28125 20.796875 -6.5625 C 20.796875 -7.6875 21.132812 -8.75 21.8125 -9.75 C 22.5 -10.75 23.554688 -11.554688 24.984375 -12.171875 C 26.421875 -12.796875 28.269531 -13.109375 30.53125 -13.109375 C 30.832031 -13.109375 31.140625 -13.109375 31.453125 -13.109375 C 31.773438 -13.109375 32.085938 -13.09375 32.390625 -13.0625 L 32.5 -13.0625 C 32.84375 -13.0625 32.976562 -13.226562 32.90625 -13.5625 C 32.789062 -14.8125 32.734375 -15.941406 32.734375 -16.953125 C 32.734375 -19.140625 32.976562 -20.929688 33.46875 -22.328125 C 33.957031 -23.722656 34.601562 -24.816406 35.40625 -25.609375 C 36.21875 -26.398438 37.078125 -27.003906 37.984375 -27.421875 C 38.441406 -27.609375 38.425781 -27.738281 37.9375 -27.8125 C 37.445312 -27.851562 36.9375 -27.875 36.40625 -27.875 C 35.875 -27.875 35.363281 -27.875 34.875 -27.875 C 34.238281 -27.875 33.679688 -28.085938 33.203125 -28.515625 C 32.734375 -28.953125 32.5 -29.507812 32.5 -30.1875 C 32.5 -30.832031 32.71875 -31.390625 33.15625 -31.859375 C 33.59375 -32.328125 34.148438 -32.582031 34.828125 -32.625 C 37.578125 -32.726562 39.816406 -32.515625 41.546875 -31.984375 C 43.285156 -31.460938 44.554688 -30.773438 45.359375 -29.921875 C 46.171875 -29.078125 46.578125 -28.242188 46.578125 -27.421875 C 46.578125 -26.703125 46.285156 -26.066406 45.703125 -25.515625 C 45.117188 -24.972656 44.28125 -24.644531 43.1875 -24.53125 C 41.113281 -24.34375 39.625 -23.84375 38.71875 -23.03125 C 37.8125 -22.226562 37.359375 -20.75 37.359375 -18.59375 C 37.359375 -17.800781 37.414062 -16.90625 37.53125 -15.90625 C 37.644531 -14.914062 37.796875 -13.816406 37.984375 -12.609375 C 38.023438 -12.335938 38.234375 -12.128906 38.609375 -11.984375 C 40.640625 -11.265625 42.484375 -10.382812 44.140625 -9.34375 C 45.804688 -8.3125 47.1875 -7.363281 48.28125 -6.5 Z M 26.5625 -4.75 C 26.976562 -4.289062 27.5625 -3.910156 28.3125 -3.609375 C 29.070312 -3.316406 29.8125 -3.171875 30.53125 -3.171875 C 31.507812 -3.171875 32.347656 -3.515625 33.046875 -4.203125 C 33.742188 -4.898438 34 -6.140625 33.8125 -7.921875 C 33.769531 -8.210938 33.5625 -8.414062 33.1875 -8.53125 C 32.695312 -8.6875 32.210938 -8.789062 31.734375 -8.84375 C 31.265625 -8.90625 30.820312 -8.9375 30.40625 -8.9375 C 29.09375 -8.9375 27.992188 -8.695312 27.109375 -8.21875 C 26.222656 -7.75 25.78125 -7.140625 25.78125 -6.390625 C 25.78125 -5.828125 26.039062 -5.28125 26.5625 -4.75 Z M 26.5625 -4.75 "/></g></g></g><g fill="#ffb83d" fill-opacity="1"><g transform="translate(220.574629, 365.089085)"><g><path d="M 50.03125 -39.578125 C 50.144531 -39.347656 50.203125 -39.101562 50.203125 -38.84375 C 50.203125 -38.050781 49.820312 -37.503906 49.0625 -37.203125 C 48.84375 -37.085938 48.617188 -37.03125 48.390625 -37.03125 C 47.640625 -37.03125 47.113281 -37.40625 46.8125 -38.15625 C 45.9375 -40.457031 44.613281 -42.457031 42.84375 -44.15625 C 42.46875 -44.53125 42.28125 -44.941406 42.28125 -45.390625 C 42.28125 -45.804688 42.429688 -46.164062 42.734375 -46.46875 C 43.109375 -46.84375 43.539062 -47.03125 44.03125 -47.03125 C 44.414062 -47.03125 44.796875 -46.878906 45.171875 -46.578125 C 46.265625 -45.597656 47.175781 -44.570312 47.90625 -43.5 C 48.644531 -42.425781 49.351562 -41.117188 50.03125 -39.578125 Z M 38.265625 -41.78125 C 37.859375 -42.113281 37.65625 -42.546875 37.65625 -43.078125 C 37.65625 -43.453125 37.804688 -43.828125 38.109375 -44.203125 C 38.515625 -44.617188 38.984375 -44.828125 39.515625 -44.828125 C 39.890625 -44.828125 40.265625 -44.675781 40.640625 -44.375 C 41.660156 -43.4375 42.554688 -42.410156 43.328125 -41.296875 C 44.097656 -40.179688 44.785156 -38.910156 45.390625 -37.484375 C 45.503906 -37.253906 45.5625 -37.007812 45.5625 -36.75 C 45.5625 -36.289062 45.390625 -35.863281 45.046875 -35.46875 C 44.710938 -35.070312 44.265625 -34.875 43.703125 -34.875 C 42.941406 -34.875 42.410156 -35.269531 42.109375 -36.0625 C 41.242188 -38.320312 39.960938 -40.226562 38.265625 -41.78125 Z M 42 -30.40625 C 42.414062 -30.632812 42.832031 -30.75 43.25 -30.75 C 44.1875 -30.75 44.863281 -30.351562 45.28125 -29.5625 C 45.507812 -29.1875 45.625 -28.753906 45.625 -28.265625 C 45.625 -27.847656 45.53125 -27.441406 45.34375 -27.046875 C 45.15625 -26.648438 44.851562 -26.34375 44.4375 -26.125 C 43.375 -25.476562 42.222656 -24.878906 40.984375 -24.328125 C 39.742188 -23.785156 38.441406 -23.289062 37.078125 -22.84375 C 36.742188 -22.726562 36.648438 -22.5 36.796875 -22.15625 C 37.628906 -20.164062 38.375 -18.226562 39.03125 -16.34375 C 39.695312 -14.457031 40.21875 -12.703125 40.59375 -11.078125 C 40.625 -11.003906 40.640625 -10.910156 40.640625 -10.796875 C 40.640625 -10.679688 40.640625 -10.585938 40.640625 -10.515625 C 40.640625 -9.566406 40.226562 -8.890625 39.40625 -8.484375 C 38.875 -8.210938 38.363281 -8.078125 37.875 -8.078125 C 37.425781 -8.078125 36.898438 -8.210938 36.296875 -8.484375 C 34.253906 -9.492188 32.269531 -10.21875 30.34375 -10.65625 C 28.425781 -11.09375 26.625 -11.3125 24.9375 -11.3125 C 23.195312 -11.3125 21.59375 -11.101562 20.125 -10.6875 C 18.613281 -10.3125 17.40625 -9.78125 16.5 -9.09375 C 15.601562 -8.414062 15.15625 -7.722656 15.15625 -7.015625 C 15.15625 -6.109375 16.019531 -5.296875 17.75 -4.578125 C 19.476562 -3.859375 22.34375 -3.484375 26.34375 -3.453125 C 27.769531 -3.453125 29.238281 -3.515625 30.75 -3.640625 C 32.257812 -3.773438 34.070312 -4.066406 36.1875 -4.515625 C 36.289062 -4.554688 36.457031 -4.578125 36.6875 -4.578125 C 37.332031 -4.578125 37.898438 -4.34375 38.390625 -3.875 C 38.878906 -3.40625 39.125 -2.828125 39.125 -2.140625 C 39.125 -1.578125 38.953125 -1.066406 38.609375 -0.609375 C 38.273438 -0.160156 37.820312 0.0976562 37.25 0.171875 C 35.0625 0.585938 33.015625 0.890625 31.109375 1.078125 C 29.210938 1.265625 27.453125 1.359375 25.828125 1.359375 C 22.253906 1.359375 19.328125 0.96875 17.046875 0.1875 C 14.765625 -0.582031 13.078125 -1.585938 11.984375 -2.828125 C 10.890625 -4.066406 10.34375 -5.367188 10.34375 -6.734375 C 10.34375 -8.203125 10.898438 -9.613281 12.015625 -10.96875 C 13.128906 -12.320312 14.722656 -13.429688 16.796875 -14.296875 C 18.867188 -15.171875 21.316406 -15.609375 24.140625 -15.609375 C 25.609375 -15.609375 27.171875 -15.460938 28.828125 -15.171875 C 30.484375 -14.890625 32.238281 -14.429688 34.09375 -13.796875 C 34.164062 -13.753906 34.257812 -13.734375 34.375 -13.734375 C 34.675781 -13.734375 34.75 -13.90625 34.59375 -14.25 C 34.21875 -15.34375 33.820312 -16.441406 33.40625 -17.546875 C 32.988281 -18.660156 32.535156 -19.800781 32.046875 -20.96875 C 31.941406 -21.269531 31.738281 -21.382812 31.4375 -21.3125 C 28.71875 -20.75 25.953125 -20.320312 23.140625 -20.03125 C 20.335938 -19.75 17.597656 -19.609375 14.921875 -19.609375 C 14.546875 -19.609375 14.175781 -19.617188 13.8125 -19.640625 C 13.457031 -19.660156 13.09375 -19.671875 12.71875 -19.671875 C 12.082031 -19.710938 11.535156 -19.96875 11.078125 -20.4375 C 10.628906 -20.90625 10.40625 -21.460938 10.40625 -22.109375 C 10.40625 -22.816406 10.648438 -23.40625 11.140625 -23.875 C 11.628906 -24.351562 12.210938 -24.59375 12.890625 -24.59375 C 13.335938 -24.59375 13.785156 -24.582031 14.234375 -24.5625 C 14.691406 -24.539062 15.148438 -24.53125 15.609375 -24.53125 C 18.128906 -24.53125 20.53125 -24.644531 22.8125 -24.875 C 25.09375 -25.101562 27.25 -25.421875 29.28125 -25.828125 C 29.625 -25.910156 29.738281 -26.117188 29.625 -26.453125 C 29.28125 -27.171875 28.929688 -27.867188 28.578125 -28.546875 C 28.222656 -29.222656 27.875 -29.898438 27.53125 -30.578125 C 27.375 -30.847656 27.148438 -30.960938 26.859375 -30.921875 C 22.554688 -30.171875 18.203125 -29.851562 13.796875 -29.96875 C 13.191406 -29.96875 12.648438 -30.203125 12.171875 -30.671875 C 11.703125 -31.140625 11.46875 -31.691406 11.46875 -32.328125 C 11.46875 -33.046875 11.710938 -33.640625 12.203125 -34.109375 C 12.703125 -34.585938 13.304688 -34.828125 14.015625 -34.828125 C 14.390625 -34.828125 14.765625 -34.816406 15.140625 -34.796875 C 15.523438 -34.773438 15.90625 -34.765625 16.28125 -34.765625 C 19.101562 -34.765625 21.722656 -34.9375 24.140625 -35.28125 C 24.515625 -35.351562 24.609375 -35.578125 24.421875 -35.953125 C 24.046875 -36.484375 23.6875 -37 23.34375 -37.5 C 23.007812 -38.007812 22.648438 -38.472656 22.265625 -38.890625 C 21.890625 -39.453125 21.703125 -40 21.703125 -40.53125 C 21.703125 -41.28125 21.96875 -41.882812 22.5 -42.34375 C 22.945312 -42.789062 23.492188 -43.015625 24.140625 -43.015625 C 24.859375 -43.015625 25.441406 -42.734375 25.890625 -42.171875 C 27.097656 -40.703125 28.304688 -38.953125 29.515625 -36.921875 C 29.660156 -36.648438 29.882812 -36.550781 30.1875 -36.625 C 32.070312 -37.226562 33.878906 -37.984375 35.609375 -38.890625 C 35.992188 -39.078125 36.375 -39.171875 36.75 -39.171875 C 37.15625 -39.171875 37.554688 -39.054688 37.953125 -38.828125 C 38.347656 -38.609375 38.644531 -38.289062 38.84375 -37.875 C 39.03125 -37.5 39.125 -37.125 39.125 -36.75 C 39.125 -36.289062 39 -35.84375 38.75 -35.40625 C 38.507812 -34.976562 38.179688 -34.648438 37.765625 -34.421875 C 37.046875 -34.015625 36.257812 -33.640625 35.40625 -33.296875 C 34.5625 -32.953125 33.671875 -32.628906 32.734375 -32.328125 C 32.390625 -32.222656 32.296875 -32 32.453125 -31.65625 C 32.785156 -31.019531 33.113281 -30.359375 33.4375 -29.671875 C 33.757812 -28.992188 34.085938 -28.316406 34.421875 -27.640625 C 34.535156 -27.335938 34.765625 -27.242188 35.109375 -27.359375 C 37.628906 -28.148438 39.925781 -29.164062 42 -30.40625 Z M 42 -30.40625 "/></g></g></g></svg>